<svg width="166" height="38" viewBox="0 0 166 38" fill="none" xmlns="http://www.w3.org/2000/svg">
<path d="M16 15.097L18.3794 21.8829C19.487 25.0414 23.2231 26.3768 26.0818 24.6359L30.7286 21.8061C33.1299 20.3437 32.5059 16.6975 29.7549 16.1168V16.1168C27.5171 15.6445 25.5541 17.6719 26.0984 19.8933L27.1296 24.1023C27.7686 26.7101 30.1062 28.5441 32.7912 28.5441H37.4157" stroke="#0770E3" stroke-width="2"/>
<path d="M13.1728 12.6008L17.677 9.10304L5.55151 6.287L10.5739 17.677L13.1728 12.6008ZM13.1728 12.6008L9.36215 9.4439" stroke="#0770E3" stroke-width="1.5" stroke-linecap="round" stroke-linejoin="round"/>
<path d="M53.6889 26.8583C53.6889 28.1831 53.2078 29.2429 52.2456 30.0378C51.2973 30.8187 49.9447 31.2092 48.1876 31.2092C46.6118 31.2092 45.2033 30.9094 43.9622 30.3097V27.3603C44.6734 27.6671 45.4055 27.953 46.1586 28.218C46.9255 28.469 47.6856 28.5945 48.4386 28.5945C49.2195 28.5945 49.7703 28.448 50.0911 28.1552C50.4258 27.8484 50.5931 27.4649 50.5931 27.0047C50.5931 26.6282 50.4606 26.3075 50.1957 26.0425C49.9447 25.7776 49.603 25.5335 49.1707 25.3104C48.7384 25.0733 48.2434 24.8223 47.6856 24.5574C47.3369 24.39 46.9604 24.1948 46.556 23.9717C46.1516 23.7346 45.7611 23.4487 45.3846 23.114C45.022 22.7654 44.7222 22.3471 44.4852 21.859C44.2481 21.3709 44.1296 20.7852 44.1296 20.1019C44.1296 18.7632 44.5828 17.7243 45.4892 16.9852C46.3956 16.2321 47.6298 15.8556 49.1916 15.8556C49.9725 15.8556 50.7116 15.9463 51.4089 16.1276C52.1201 16.3088 52.8592 16.5668 53.6262 16.9015L52.6012 19.3698C51.9179 19.0909 51.3043 18.8747 50.7604 18.7213C50.2166 18.5679 49.6588 18.4912 49.087 18.4912C48.4874 18.4912 48.0272 18.6307 47.7065 18.9096C47.3857 19.1885 47.2254 19.5511 47.2254 19.9973C47.2254 20.5272 47.4624 20.9456 47.9366 21.2524C48.4107 21.5592 49.1149 21.9357 50.0492 22.3819C50.8162 22.7445 51.4647 23.121 51.9946 23.5115C52.5384 23.9019 52.9568 24.3621 53.2496 24.892C53.5425 25.422 53.6889 26.0774 53.6889 26.8583ZM68.4104 31H64.8125L60.9009 24.7038L59.5622 25.666V31H56.4036V16.0648H59.5622V22.9049C59.7714 22.612 59.9806 22.3192 60.1897 22.0263C60.3989 21.7335 60.6081 21.4406 60.8173 21.1478L64.8544 16.0648H68.3685L63.16 22.6748L68.4104 31ZM74.938 22.2146L78.0547 16.0648H81.4643L76.5068 25.1849V31H73.3692V25.2895L68.4117 16.0648H71.8422L74.938 22.2146ZM87.6982 16.0648C89.7342 16.0648 91.2333 16.4343 92.1955 17.1734C93.1717 17.9125 93.6598 19.0351 93.6598 20.5412C93.6598 21.2245 93.5273 21.8241 93.2623 22.3401C93.0113 22.8421 92.6697 23.2744 92.2374 23.637C91.819 23.9856 91.3658 24.2715 90.8777 24.4946L95.2704 31H91.7563L88.2003 25.2686H86.5059V31H83.3474V16.0648H87.6982ZM87.4681 18.6586H86.5059V22.6957H87.5309C88.5768 22.6957 89.3228 22.5214 89.7691 22.1728C90.2293 21.8241 90.4594 21.3082 90.4594 20.6248C90.4594 19.9136 90.2153 19.4116 89.7272 19.1188C89.2531 18.812 88.5001 18.6586 87.4681 18.6586ZM105.753 31H97.1563V16.0648H105.753V18.6586H100.315V21.9427H105.377V24.5364H100.315V28.3853H105.753V31ZM118.002 31L116.914 27.444H111.476L110.388 31H106.979L112.25 16.002H116.12L121.412 31H118.002ZM116.161 24.7875L115.074 21.3151C115.004 21.0781 114.913 20.7782 114.802 20.4157C114.69 20.0531 114.579 19.6836 114.467 19.307C114.356 18.9305 114.265 18.6028 114.195 18.3239C114.125 18.6028 114.028 18.9514 113.902 19.3698C113.791 19.7742 113.679 20.1647 113.568 20.5412C113.47 20.9037 113.393 21.1617 113.338 21.3151L112.271 24.7875H116.161ZM135.687 23.386C135.687 25.91 134.968 27.8135 133.532 29.0965C132.11 30.3655 130.109 31 127.529 31H123.303V16.0648H127.989C129.551 16.0648 130.903 16.3437 132.047 16.9015C133.204 17.4593 134.097 18.2821 134.724 19.3698C135.366 20.4436 135.687 21.7823 135.687 23.386ZM132.403 23.4696C132.403 21.8102 132.04 20.597 131.315 19.83C130.59 19.0491 129.537 18.6586 128.156 18.6586H126.462V28.3853H127.822C130.876 28.3853 132.403 26.7467 132.403 23.4696ZM147.384 31H138.787V16.0648H147.384V18.6586H141.946V21.9427H147.008V24.5364H141.946V28.3853H147.384V31ZM154.843 16.0648C156.879 16.0648 158.378 16.4343 159.34 17.1734C160.317 17.9125 160.805 19.0351 160.805 20.5412C160.805 21.2245 160.672 21.8241 160.407 22.3401C160.156 22.8421 159.814 23.2744 159.382 23.637C158.964 23.9856 158.511 24.2715 158.023 24.4946L162.415 31H158.901L155.345 25.2686H153.651V31H150.492V16.0648H154.843ZM154.613 18.6586H153.651V22.6957H154.676C155.722 22.6957 156.468 22.5214 156.914 22.1728C157.374 21.8241 157.604 21.3082 157.604 20.6248C157.604 19.9136 157.36 19.4116 156.872 19.1188C156.398 18.812 155.645 18.6586 154.613 18.6586Z" fill="#111111"/>
</svg>
