<svg width="141" height="16" viewBox="0 0 141 16" fill="none" xmlns="http://www.w3.org/2000/svg">
<line y1="7.5" x2="56" y2="7.5" stroke="#C0C4C7"/>
<line x1="85" y1="7.5" x2="141" y2="7.5" stroke="#C0C4C7"/>
<path d="M75.7412 6.99982C75.635 6.99982 75.279 7.00294 75.1787 7.00919L73.1506 7.06232C73.14 7.06296 73.1295 7.06068 73.1202 7.05571C73.1109 7.05075 73.1031 7.0433 73.0978 7.03419L69.0484 2.11107C69.0238 2.07855 68.9925 2.05177 68.9566 2.03256C68.9206 2.01335 68.8809 2.00218 68.8403 1.99982H68L70.2812 7.03107C70.2866 7.04258 70.289 7.05532 70.288 7.06802C70.2871 7.08072 70.2828 7.09295 70.2757 7.10351C70.2686 7.11407 70.2588 7.12259 70.2474 7.12825C70.236 7.1339 70.2233 7.13649 70.2106 7.13575L66.4078 7.192C66.3682 7.1932 66.3289 7.18506 66.2931 7.16822C66.2572 7.15139 66.2259 7.12635 66.2015 7.09513L65.0453 5.68888C64.9515 5.567 64.7759 5.50138 64.6231 5.50138H64.0337C63.9934 5.50138 63.9993 5.53919 64.0103 5.57732L64.6303 7.80919C64.6771 7.92872 64.6771 8.06154 64.6303 8.18107L64.0096 10.4061C63.9912 10.467 63.9934 10.4998 64.065 10.4998H64.625C64.8793 10.4998 64.914 10.4667 65.044 10.3029L66.2221 8.87482C66.2467 8.84384 66.2781 8.81897 66.3139 8.80216C66.3497 8.78535 66.3889 8.77706 66.4284 8.77794L70.1996 8.86232C70.2134 8.86263 70.2268 8.86629 70.2388 8.87298C70.2508 8.87967 70.261 8.88918 70.2685 8.9007C70.276 8.91222 70.2805 8.92539 70.2818 8.93906C70.283 8.95274 70.2809 8.96652 70.2756 8.97919L68 13.9998H68.8325C68.8731 13.9974 68.9127 13.9863 68.9485 13.9672C68.9844 13.948 69.0157 13.9213 69.0403 13.8889L73.0981 8.96857C73.1103 8.94982 73.1606 8.94044 73.1821 8.94044L75.179 8.99357C75.2821 8.99982 75.635 9.00294 75.7415 9.00294C77.125 9.00294 78 8.62263 78 7.99982C78 7.377 77.1287 6.99982 75.7412 6.99982Z" stroke="#C0C4C7" stroke-linecap="round" stroke-linejoin="round"/>
</svg>
