<svg width="12" height="10" viewBox="0 0 12 10" fill="none" xmlns="http://www.w3.org/2000/svg">
<path d="M11.1702 4.32258L11.1664 4.32094L1.15676 0.169221C1.07257 0.133983 0.980956 0.120162 0.890116 0.128997C0.799275 0.137832 0.71204 0.169045 0.636216 0.219846C0.556105 0.272339 0.490302 0.343925 0.444726 0.428162C0.39915 0.5124 0.375231 0.606647 0.375122 0.702424V3.35766C0.375167 3.48859 0.420886 3.61541 0.5044 3.71625C0.587914 3.81709 0.70399 3.88564 0.832622 3.91008L6.29192 4.91953C6.31337 4.9236 6.33273 4.93503 6.34666 4.95184C6.36058 4.96866 6.36821 4.98981 6.36821 5.01164C6.36821 5.03348 6.36058 5.05463 6.34666 5.07144C6.33273 5.08826 6.31337 5.09968 6.29192 5.10375L0.832856 6.1132C0.70426 6.13758 0.588191 6.20604 0.504639 6.30679C0.421088 6.40754 0.375286 6.53427 0.375122 6.66516V9.32086C0.37506 9.41232 0.397705 9.50236 0.441026 9.5829C0.484346 9.66345 0.546986 9.73198 0.623325 9.78234C0.715153 9.84336 0.82292 9.87596 0.933169 9.87609C1.00981 9.87603 1.08567 9.86065 1.15629 9.83086L11.1657 5.70281L11.1702 5.70071C11.3049 5.6428 11.4197 5.54667 11.5004 5.4242C11.5811 5.30173 11.6241 5.15829 11.6241 5.01164C11.6241 4.86499 11.5811 4.72156 11.5004 4.59909C11.4197 4.47662 11.3049 4.38048 11.1702 4.32258Z" fill="white"/>
</svg>
